<?xml version="1.0" encoding="UTF-8" standalone="no"?>
<!-- Generator: Adobe Illustrator 19.0.0, SVG Export Plug-In . SVG Version: 6.00 Build 0)  -->

<svg
   xmlns:dc="http://purl.org/dc/elements/1.1/"
   xmlns:cc="http://creativecommons.org/ns#"
   xmlns:rdf="http://www.w3.org/1999/02/22-rdf-syntax-ns#"
   xmlns:svg="http://www.w3.org/2000/svg"
   xmlns="http://www.w3.org/2000/svg"
   xmlns:sodipodi="http://sodipodi.sourceforge.net/DTD/sodipodi-0.dtd"
   xmlns:inkscape="http://www.inkscape.org/namespaces/inkscape"
   version="1.1"
   id="Capa_1"
   x="0px"
   y="0px"
   viewBox="0 0 490.2 490.2"
   style="enable-background:new 0 0 490.2 490.2;"
   xml:space="preserve"
   sodipodi:docname="head.svg"
   inkscape:version="0.92.2 (5c3e80d, 2017-08-06)"><metadata
     id="metadata75"><rdf:RDF><cc:Work
         rdf:about=""><dc:format>image/svg+xml</dc:format><dc:type
           rdf:resource="http://purl.org/dc/dcmitype/StillImage" /></cc:Work></rdf:RDF></metadata><defs
     id="defs73" /><sodipodi:namedview
     pagecolor="#ffffff"
     bordercolor="#666666"
     borderopacity="1"
     objecttolerance="10"
     gridtolerance="10"
     guidetolerance="10"
     inkscape:pageopacity="0"
     inkscape:pageshadow="2"
     inkscape:window-width="3840"
     inkscape:window-height="2109"
     id="namedview71"
     showgrid="false"
     inkscape:zoom="1.9257445"
     inkscape:cx="286.90202"
     inkscape:cy="269.88542"
     inkscape:window-x="-14"
     inkscape:window-y="-14"
     inkscape:window-maximized="1"
     inkscape:current-layer="Capa_1" /><g
     id="g38"><g
       id="g6"><g
         id="g4"><path
           d="M69.503,391.6c0,30.1,24.5,54.5,54.5,54.5c0.8,0,1.7-0.1,2.5-0.2l31.7-4.7v31.9c0,9.5,7.7,17.1,17.2,17.1h210.3     c9.5,0,17.2-7.7,17.2-17.2V333.5c36.8-36.5,57.7-86.5,57.7-138.4c0-107.6-87.5-195.1-195-195.1c-29.1,0-57.2,6.3-83.2,18.6     c-68.6,31.8-112.9,101.2-112.9,176.7v25.3l-34.3,65.5c-7.2,13.8-7.5,28.1-0.7,39.3c6.7,11.1,19.5,17.6,35,17.6     C69.503,343,69.503,391.6,69.503,391.6z M63.903,307.8L63.903,307.8c-0.1-0.4-0.1-2.4,1.7-5.8l36.3-69.2c1.3-2.5,2-5.2,2-8v-29.5     c0-62.2,36.5-119.3,93.1-145.6c21.6-10.2,44.7-15.4,68.7-15.4c88.6,0,160.7,72.1,160.7,160.8c0,44.9-19,88.1-52.1,118.5     c-3.5,3.2-5.6,7.8-5.6,12.6V456h-176v-34.6c0-5-2.2-9.7-6-13c-3.8-3.2-8.8-4.7-13.7-4l-49.9,7.4c-10.7-0.6-19.2-9.4-19.2-20.2     v-65.8c0-9.5-7.7-17.1-17.2-17.1h-17C65.903,308.6,64.103,307.8,63.903,307.8z"
           id="path2" /></g></g><g
       id="g8" /><g
       id="g10" /><g
       id="g12" /><g
       id="g14" /><g
       id="g16" /><g
       id="g18" /><g
       id="g20" /><g
       id="g22" /><g
       id="g24" /><g
       id="g26" /><g
       id="g28" /><g
       id="g30" /><g
       id="g32" /><g
       id="g34" /><g
       id="g36" /></g><g
     id="g40" /><g
     id="g42" /><g
     id="g44" /><g
     id="g46" /><g
     id="g48" /><g
     id="g50" /><g
     id="g52" /><g
     id="g54" /><g
     id="g56" /><g
     id="g58" /><g
     id="g60" /><g
     id="g62" /><g
     id="g64" /><g
     id="g66" /><g
     id="g68" /><rect
     style="fill:#ffffff"
     id="rect107"
     width="232.11801"
     height="274.69894"
     x="234.71442"
     y="-5.1729438e-007" /></svg>