<?xml version="1.0" encoding="UTF-8" standalone="no"?>
<!-- Generator: Adobe Illustrator 19.1.0, SVG Export Plug-In . SVG Version: 6.00 Build 0)  -->

<svg
   xmlns:dc="http://purl.org/dc/elements/1.1/"
   xmlns:cc="http://creativecommons.org/ns#"
   xmlns:rdf="http://www.w3.org/1999/02/22-rdf-syntax-ns#"
   xmlns:svg="http://www.w3.org/2000/svg"
   xmlns="http://www.w3.org/2000/svg"
   xmlns:sodipodi="http://sodipodi.sourceforge.net/DTD/sodipodi-0.dtd"
   xmlns:inkscape="http://www.inkscape.org/namespaces/inkscape"
   version="1.1"
   id="Capa_1"
   x="0px"
   y="0px"
   viewBox="0 0 478.703 478.703"
   style="enable-background:new 0 0 478.703 478.703;"
   xml:space="preserve"
   sodipodi:docname="gear.svg"
   inkscape:version="0.92.2 (5c3e80d, 2017-08-06)"><metadata
     id="metadata4721"><rdf:RDF><cc:Work
         rdf:about=""><dc:format>image/svg+xml</dc:format><dc:type
           rdf:resource="http://purl.org/dc/dcmitype/StillImage" /></cc:Work></rdf:RDF></metadata><defs
     id="defs4719" /><sodipodi:namedview
     pagecolor="#ffffff"
     bordercolor="#666666"
     borderopacity="1"
     objecttolerance="10"
     gridtolerance="10"
     guidetolerance="10"
     inkscape:pageopacity="0"
     inkscape:pageshadow="2"
     inkscape:window-width="2904"
     inkscape:window-height="1678"
     id="namedview4717"
     showgrid="false"
     inkscape:zoom="0.49299879"
     inkscape:cx="239.3515"
     inkscape:cy="239.3515"
     inkscape:window-x="346"
     inkscape:window-y="164"
     inkscape:window-maximized="1"
     inkscape:current-layer="Capa_1" /><g
     id="g4684"><g
       id="g4682"><path
         d="M454.2,189.101l-33.6-5.7c-3.5-11.3-8-22.2-13.5-32.6l19.8-27.7c8.4-11.8,7.1-27.9-3.2-38.1l-29.8-29.8    c-5.6-5.6-13-8.7-20.9-8.7c-6.2,0-12.1,1.9-17.1,5.5l-27.8,19.8c-10.8-5.7-22.1-10.4-33.8-13.9l-5.6-33.2    c-2.4-14.3-14.7-24.7-29.2-24.7h-42.1c-14.5,0-26.8,10.4-29.2,24.7l-5.8,34c-11.2,3.5-22.1,8.1-32.5,13.7l-27.5-19.8    c-5-3.6-11-5.5-17.2-5.5c-7.9,0-15.4,3.1-20.9,8.7l-29.9,29.8c-10.2,10.2-11.6,26.3-3.2,38.1l20,28.1    c-5.5,10.5-9.9,21.4-13.3,32.7l-33.2,5.6c-14.3,2.4-24.7,14.7-24.7,29.2v42.1c0,14.5,10.4,26.8,24.7,29.2l34,5.8    c3.5,11.2,8.1,22.1,13.7,32.5l-19.7,27.4c-8.4,11.8-7.1,27.9,3.2,38.1l29.8,29.8c5.6,5.6,13,8.7,20.9,8.7c6.2,0,12.1-1.9,17.1-5.5    l28.1-20c10.1,5.3,20.7,9.6,31.6,13l5.6,33.6c2.4,14.3,14.7,24.7,29.2,24.7h42.2c14.5,0,26.8-10.4,29.2-24.7l5.7-33.6    c11.3-3.5,22.2-8,32.6-13.5l27.7,19.8c5,3.6,11,5.5,17.2,5.5l0,0c7.9,0,15.3-3.1,20.9-8.7l29.8-29.8c10.2-10.2,11.6-26.3,3.2-38.1    l-19.8-27.8c5.5-10.5,10.1-21.4,13.5-32.6l33.6-5.6c14.3-2.4,24.7-14.7,24.7-29.2v-42.1    C478.9,203.801,468.5,191.501,454.2,189.101z M451.9,260.401c0,1.3-0.9,2.4-2.2,2.6l-42,7c-5.3,0.9-9.5,4.8-10.8,9.9    c-3.8,14.7-9.6,28.8-17.4,41.9c-2.7,4.6-2.5,10.3,0.6,14.7l24.7,34.8c0.7,1,0.6,2.5-0.3,3.4l-29.8,29.8c-0.7,0.7-1.4,0.8-1.9,0.8    c-0.6,0-1.1-0.2-1.5-0.5l-34.7-24.7c-4.3-3.1-10.1-3.3-14.7-0.6c-13.1,7.8-27.2,13.6-41.9,17.4c-5.2,1.3-9.1,5.6-9.9,10.8l-7.1,42    c-0.2,1.3-1.3,2.2-2.6,2.2h-42.1c-1.3,0-2.4-0.9-2.6-2.2l-7-42c-0.9-5.3-4.8-9.5-9.9-10.8c-14.3-3.7-28.1-9.4-41-16.8    c-2.1-1.2-4.5-1.8-6.8-1.8c-2.7,0-5.5,0.8-7.8,2.5l-35,24.9c-0.5,0.3-1,0.5-1.5,0.5c-0.4,0-1.2-0.1-1.9-0.8l-29.8-29.8    c-0.9-0.9-1-2.3-0.3-3.4l24.6-34.5c3.1-4.4,3.3-10.2,0.6-14.8c-7.8-13-13.8-27.1-17.6-41.8c-1.4-5.1-5.6-9-10.8-9.9l-42.3-7.2    c-1.3-0.2-2.2-1.3-2.2-2.6v-42.1c0-1.3,0.9-2.4,2.2-2.6l41.7-7c5.3-0.9,9.6-4.8,10.9-10c3.7-14.7,9.4-28.9,17.1-42    c2.7-4.6,2.4-10.3-0.7-14.6l-24.9-35c-0.7-1-0.6-2.5,0.3-3.4l29.8-29.8c0.7-0.7,1.4-0.8,1.9-0.8c0.6,0,1.1,0.2,1.5,0.5l34.5,24.6    c4.4,3.1,10.2,3.3,14.8,0.6c13-7.8,27.1-13.8,41.8-17.6c5.1-1.4,9-5.6,9.9-10.8l7.2-42.3c0.2-1.3,1.3-2.2,2.6-2.2h42.1    c1.3,0,2.4,0.9,2.6,2.2l7,41.7c0.9,5.3,4.8,9.6,10,10.9c15.1,3.8,29.5,9.7,42.9,17.6c4.6,2.7,10.3,2.5,14.7-0.6l34.5-24.8    c0.5-0.3,1-0.5,1.5-0.5c0.4,0,1.2,0.1,1.9,0.8l29.8,29.8c0.9,0.9,1,2.3,0.3,3.4l-24.7,34.7c-3.1,4.3-3.3,10.1-0.6,14.7    c7.8,13.1,13.6,27.2,17.4,41.9c1.3,5.2,5.6,9.1,10.8,9.9l42,7.1c1.3,0.2,2.2,1.3,2.2,2.6v42.1H451.9z"
         id="path4678" /><path
         d="M239.4,136.001c-57,0-103.3,46.3-103.3,103.3s46.3,103.3,103.3,103.3s103.3-46.3,103.3-103.3S296.4,136.001,239.4,136.001    z M239.4,315.601c-42.1,0-76.3-34.2-76.3-76.3s34.2-76.3,76.3-76.3s76.3,34.2,76.3,76.3S281.5,315.601,239.4,315.601z"
         id="path4680" /></g></g><g
     id="g4686" /><g
     id="g4688" /><g
     id="g4690" /><g
     id="g4692" /><g
     id="g4694" /><g
     id="g4696" /><g
     id="g4698" /><g
     id="g4700" /><g
     id="g4702" /><g
     id="g4704" /><g
     id="g4706" /><g
     id="g4708" /><g
     id="g4710" /><g
     id="g4712" /><g
     id="g4714" /><path
     style="fill:#f4d37d;fill-opacity:1;stroke:#6d0000;stroke-width:2.02840257;stroke-opacity:1"
     d="m 217.02562,450.60963 c -0.22769,-8.58445 -8.84452,-47.66345 -11.04608,-50.09613 -1.6945,-1.87242 -8.34254,-5.05525 -14.77341,-7.07298 -6.43088,-2.01771 -16.91497,-6.29606 -23.29797,-9.50743 -6.38301,-3.21136 -14.14165,-5.83054 -17.24143,-5.82035 -3.68143,0.0122 -11.96691,4.57027 -23.89157,13.14378 -10.04059,7.21888 -19.19125,13.14364 -20.33479,13.16612 -1.14355,0.0225 -8.811519,-6.73675 -17.039947,-15.02047 L 74.439646,374.34088 87.062399,356.6939 c 18.014881,-25.18536 17.909921,-24.6445 8.584504,-44.23096 -4.325723,-9.08546 -9.436508,-21.31979 -11.357304,-27.18743 -1.920796,-5.86762 -5.013479,-11.47808 -6.87263,-12.46766 -1.859152,-0.98957 -11.595306,-3.27885 -21.635899,-5.08727 -10.040592,-1.80842 -20.30938,-3.74581 -22.819528,-4.30531 -4.3941,-0.97941 -4.563906,-1.84599 -4.563906,-23.29105 0,-12.25058 0.228195,-22.27984 0.5071,-22.28724 6.684261,-0.1773 47.327385,-8.58375 49.261696,-10.18909 1.489543,-1.23621 4.649502,-8.25645 7.022132,-15.60054 2.372629,-7.34409 6.995352,-18.66488 10.272717,-25.1573 3.277365,-6.49242 5.958849,-13.89042 5.958849,-16.43999 0,-2.54957 -5.904688,-12.84438 -13.121525,-22.87737 -7.216838,-10.03299 -13.149915,-19.17742 -13.184617,-20.32096 -0.03471,-1.14354 6.73198,-8.828892 15.037069,-17.078553 l 15.100163,-14.999386 7.71937,5.266539 c 4.24565,2.896593 13.09105,8.984576 19.65645,13.528846 6.5654,4.544273 14.10967,8.262314 16.76505,8.262314 2.65538,0 9.60623,-2.637691 15.44635,-5.861533 5.84011,-3.223844 16.71057,-7.839179 24.15658,-10.256303 7.44601,-2.417124 14.71957,-5.818233 16.16347,-7.558021 1.44389,-1.739787 4.54834,-13.782705 6.89877,-26.762043 l 4.27351,-23.598794 20.96925,-0.581716 c 11.53309,-0.319944 21.67285,0.136447 22.53283,1.014201 0.85998,0.877754 3.02139,10.267338 4.80312,20.865741 4.09437,24.354969 6.20715,29.597016 12.9221,32.061028 2.97223,1.090654 9.96799,3.584634 15.5461,5.542178 5.57811,1.957543 15.36448,6.16379 21.74748,9.347216 6.38301,3.183424 13.25794,5.788046 15.27762,5.788046 2.0197,0 12.42496,-6.299909 23.12282,-13.999796 l 19.45067,-13.999795 15.72465,15.817424 c 11.02712,11.092187 15.22267,16.637837 14.04433,18.563697 -0.92418,1.51046 -6.96975,10.15273 -13.4346,19.20505 -13.26658,18.57636 -14.16328,23.26794 -6.8651,35.9185 2.68903,4.66114 7.39744,15.6225 10.46312,24.35857 3.32985,9.48885 7.28215,16.97931 9.81676,18.60489 2.33354,1.49662 14.05519,4.36221 26.04812,6.36798 l 21.80533,3.64685 v 22.58311 22.58314 l -21.80533,3.51993 c -11.99293,1.93597 -23.71458,4.73437 -26.04812,6.21865 -2.54451,1.61851 -6.47389,9.05654 -9.81676,18.58248 -3.06568,8.73609 -7.77409,19.69744 -10.46312,24.35858 -7.53223,13.05628 -6.54126,17.65372 8.23237,38.19229 7.21683,10.03298 13.14991,19.17741 13.18462,20.32096 0.0347,1.14353 -6.7145,8.81152 -14.99822,17.03994 l -15.06129,14.96079 -17.69485,-12.65701 c -25.94449,-18.5579 -23.90199,-18.16177 -44.78802,-8.68601 -9.86836,4.47718 -21.59361,9.26323 -26.05609,10.63569 -12.09512,3.71987 -14.60977,6.93898 -17.11438,21.90888 -1.24615,7.44823 -3.21841,18.33432 -4.38279,24.19133 l -2.11709,10.64912 h -22.16861 c -12.19274,0 -22.17467,-0.2282 -22.18207,-0.5071 z M 263.50355,340.4881 c 36.82733,-8.68083 66.66004,-37.90009 76.54414,-74.97021 3.68969,-13.83808 3.4504,-40.49781 -0.48373,-53.89161 -10.86853,-37.00211 -38.0963,-63.48163 -74.97367,-72.91327 -19.88082,-5.08467 -30.65229,-5.07046 -50.73924,0.0669 -46.53306,11.90116 -77.94808,52.35226 -77.94808,100.36874 0,67.45305 62.10642,116.77751 127.60058,101.33944 z"
     id="path4723"
     inkscape:connector-curvature="0" /><path
     style="fill:#f4d37d;fill-opacity:1;stroke:#6d0000;stroke-width:2.02840257;stroke-opacity:1"
     d="m 221.56271,312.06893 c -5.87915,-1.58281 -13.58484,-4.37515 -17.12375,-6.20519 -11.88037,-6.14358 -27.19009,-22.62301 -33.29419,-35.83798 -5.05743,-10.94899 -5.82996,-15.0462 -5.82996,-30.91975 0,-16.57273 0.62627,-19.57041 6.64122,-31.78851 13.36209,-27.14227 37.69103,-42.51438 67.39547,-42.58348 29.62217,-0.0689 55.7611,16.58291 68.15243,43.41654 5.18709,11.23274 5.884,15.02558 5.88206,32.0123 -0.002,17.20598 -0.62761,20.50462 -5.84149,30.79886 -10.60884,20.946 -29.7781,36.34041 -51.6667,41.4924 -14.22,3.347 -20.7235,3.274 -34.31509,-0.38519 z"
     id="path863"
     inkscape:connector-curvature="0" /></svg>